<mxfile host="app.diagrams.net" modified="2024-06-11T02:18:16.826Z" agent="Mozilla/5.0 (Windows NT 10.0; Win64; x64) AppleWebKit/537.36 (KHTML, like Gecko) Chrome/125.0.0.0 Safari/537.36" etag="Bu22zZC1UPuS7AdZ6JGh" version="24.5.2" type="device">
  <diagram name="PÃ¡gina-1" id="2Hx39TIKKnxnO-Q0Ie0q">
    <mxGraphModel dx="913" dy="514" grid="1" gridSize="10" guides="1" tooltips="1" connect="1" arrows="1" fold="1" page="1" pageScale="1" pageWidth="3300" pageHeight="2339" math="0" shadow="0">
      <root>
        <mxCell id="0" />
        <mxCell id="1" parent="0" />
        <mxCell id="pgYXsg9tAZO5rDnp-1l6-1" value="Registro Reciclaje" style="swimlane;startSize=30;" vertex="1" parent="1">
          <mxGeometry x="40" y="40" width="600" height="1210" as="geometry">
            <mxRectangle x="40" y="40" width="140" height="30" as="alternateBounds" />
          </mxGeometry>
        </mxCell>
        <mxCell id="pgYXsg9tAZO5rDnp-1l6-2" value="Ciudadano" style="swimlane;whiteSpace=wrap;html=1;" vertex="1" parent="pgYXsg9tAZO5rDnp-1l6-1">
          <mxGeometry y="30" width="200" height="1180" as="geometry" />
        </mxCell>
        <mxCell id="pgYXsg9tAZO5rDnp-1l6-3" value="Ingresa credenciales de acceso" style="whiteSpace=wrap;html=1;rounded=1;" vertex="1" parent="pgYXsg9tAZO5rDnp-1l6-2">
          <mxGeometry x="40" y="690" width="120" height="60" as="geometry" />
        </mxCell>
        <mxCell id="pgYXsg9tAZO5rDnp-1l6-4" style="edgeStyle=orthogonalEdgeStyle;rounded=0;orthogonalLoop=1;jettySize=auto;html=1;entryX=0.5;entryY=0;entryDx=0;entryDy=0;" edge="1" parent="pgYXsg9tAZO5rDnp-1l6-2" source="pgYXsg9tAZO5rDnp-1l6-5" target="pgYXsg9tAZO5rDnp-1l6-6">
          <mxGeometry relative="1" as="geometry" />
        </mxCell>
        <mxCell id="pgYXsg9tAZO5rDnp-1l6-5" value="Confirma registro de su Reciclaje - Balance de GreenCoins" style="whiteSpace=wrap;html=1;rounded=1;" vertex="1" parent="pgYXsg9tAZO5rDnp-1l6-2">
          <mxGeometry x="40" y="1035" width="120" height="70" as="geometry" />
        </mxCell>
        <mxCell id="pgYXsg9tAZO5rDnp-1l6-6" value="" style="ellipse;html=1;shape=endState;fillColor=strokeColor;" vertex="1" parent="pgYXsg9tAZO5rDnp-1l6-2">
          <mxGeometry x="85" y="1130" width="30" height="30" as="geometry" />
        </mxCell>
        <mxCell id="pgYXsg9tAZO5rDnp-1l6-7" value="Negocio" style="swimlane;whiteSpace=wrap;html=1;" vertex="1" parent="pgYXsg9tAZO5rDnp-1l6-1">
          <mxGeometry x="200" y="30" width="200" height="1180" as="geometry" />
        </mxCell>
        <mxCell id="pgYXsg9tAZO5rDnp-1l6-8" style="edgeStyle=orthogonalEdgeStyle;rounded=0;orthogonalLoop=1;jettySize=auto;html=1;entryX=0.5;entryY=0;entryDx=0;entryDy=0;" edge="1" parent="pgYXsg9tAZO5rDnp-1l6-7" source="pgYXsg9tAZO5rDnp-1l6-9" target="pgYXsg9tAZO5rDnp-1l6-10">
          <mxGeometry relative="1" as="geometry" />
        </mxCell>
        <mxCell id="pgYXsg9tAZO5rDnp-1l6-9" value="" style="ellipse;fillColor=strokeColor;html=1;" vertex="1" parent="pgYXsg9tAZO5rDnp-1l6-7">
          <mxGeometry x="85" y="40" width="30" height="30" as="geometry" />
        </mxCell>
        <mxCell id="pgYXsg9tAZO5rDnp-1l6-10" value="Ingresa credenciales de acceso" style="rounded=1;whiteSpace=wrap;html=1;" vertex="1" parent="pgYXsg9tAZO5rDnp-1l6-7">
          <mxGeometry x="40" y="100" width="120" height="60" as="geometry" />
        </mxCell>
        <mxCell id="pgYXsg9tAZO5rDnp-1l6-11" value="Registra datos del ciudadano" style="rounded=1;whiteSpace=wrap;html=1;" vertex="1" parent="pgYXsg9tAZO5rDnp-1l6-7">
          <mxGeometry x="40" y="330" width="120" height="60" as="geometry" />
        </mxCell>
        <mxCell id="pgYXsg9tAZO5rDnp-1l6-12" value="Sistema" style="swimlane;whiteSpace=wrap;html=1;" vertex="1" parent="pgYXsg9tAZO5rDnp-1l6-1">
          <mxGeometry x="400" y="30" width="200" height="1180" as="geometry" />
        </mxCell>
        <mxCell id="pgYXsg9tAZO5rDnp-1l6-13" value="Valida los datos ingresados" style="rounded=1;whiteSpace=wrap;html=1;" vertex="1" parent="pgYXsg9tAZO5rDnp-1l6-12">
          <mxGeometry x="40" y="100" width="120" height="60" as="geometry" />
        </mxCell>
        <mxCell id="pgYXsg9tAZO5rDnp-1l6-14" value="Datos Correctos" style="strokeWidth=1;html=1;shape=mxgraph.flowchart.decision;whiteSpace=wrap;" vertex="1" parent="pgYXsg9tAZO5rDnp-1l6-12">
          <mxGeometry x="50" y="180" width="100" height="100" as="geometry" />
        </mxCell>
        <mxCell id="pgYXsg9tAZO5rDnp-1l6-15" style="edgeStyle=orthogonalEdgeStyle;rounded=0;orthogonalLoop=1;jettySize=auto;html=1;entryX=0.5;entryY=0;entryDx=0;entryDy=0;entryPerimeter=0;" edge="1" parent="pgYXsg9tAZO5rDnp-1l6-12" source="pgYXsg9tAZO5rDnp-1l6-13" target="pgYXsg9tAZO5rDnp-1l6-14">
          <mxGeometry relative="1" as="geometry" />
        </mxCell>
        <mxCell id="pgYXsg9tAZO5rDnp-1l6-16" value="Valida los datos ingresados" style="rounded=1;whiteSpace=wrap;html=1;" vertex="1" parent="pgYXsg9tAZO5rDnp-1l6-12">
          <mxGeometry x="40" y="330" width="120" height="60" as="geometry" />
        </mxCell>
        <mxCell id="pgYXsg9tAZO5rDnp-1l6-17" style="edgeStyle=orthogonalEdgeStyle;rounded=0;orthogonalLoop=1;jettySize=auto;html=1;entryX=0;entryY=0.5;entryDx=0;entryDy=0;" edge="1" parent="pgYXsg9tAZO5rDnp-1l6-12" target="pgYXsg9tAZO5rDnp-1l6-16">
          <mxGeometry relative="1" as="geometry">
            <mxPoint x="-40" y="360" as="sourcePoint" />
          </mxGeometry>
        </mxCell>
        <mxCell id="pgYXsg9tAZO5rDnp-1l6-18" value="Si" style="text;html=1;align=center;verticalAlign=middle;resizable=0;points=[];autosize=1;strokeColor=none;fillColor=none;" vertex="1" parent="pgYXsg9tAZO5rDnp-1l6-12">
          <mxGeometry x="100" y="270" width="30" height="30" as="geometry" />
        </mxCell>
        <mxCell id="pgYXsg9tAZO5rDnp-1l6-19" value="No" style="text;html=1;align=center;verticalAlign=middle;resizable=0;points=[];autosize=1;strokeColor=none;fillColor=none;" vertex="1" parent="pgYXsg9tAZO5rDnp-1l6-12">
          <mxGeometry x="23" y="200" width="40" height="30" as="geometry" />
        </mxCell>
        <mxCell id="pgYXsg9tAZO5rDnp-1l6-20" style="edgeStyle=orthogonalEdgeStyle;rounded=0;orthogonalLoop=1;jettySize=auto;html=1;entryX=0.5;entryY=0;entryDx=0;entryDy=0;" edge="1" parent="pgYXsg9tAZO5rDnp-1l6-12" source="pgYXsg9tAZO5rDnp-1l6-21" target="pgYXsg9tAZO5rDnp-1l6-24">
          <mxGeometry relative="1" as="geometry" />
        </mxCell>
        <mxCell id="pgYXsg9tAZO5rDnp-1l6-21" value="Datos Correctos" style="strokeWidth=1;html=1;shape=mxgraph.flowchart.decision;whiteSpace=wrap;" vertex="1" parent="pgYXsg9tAZO5rDnp-1l6-12">
          <mxGeometry x="50" y="410" width="100" height="100" as="geometry" />
        </mxCell>
        <mxCell id="pgYXsg9tAZO5rDnp-1l6-22" style="edgeStyle=orthogonalEdgeStyle;rounded=0;orthogonalLoop=1;jettySize=auto;html=1;entryX=0.5;entryY=0;entryDx=0;entryDy=0;entryPerimeter=0;" edge="1" parent="pgYXsg9tAZO5rDnp-1l6-12" source="pgYXsg9tAZO5rDnp-1l6-16" target="pgYXsg9tAZO5rDnp-1l6-21">
          <mxGeometry relative="1" as="geometry" />
        </mxCell>
        <mxCell id="pgYXsg9tAZO5rDnp-1l6-23" style="edgeStyle=orthogonalEdgeStyle;rounded=0;orthogonalLoop=1;jettySize=auto;html=1;entryX=0.5;entryY=0;entryDx=0;entryDy=0;" edge="1" parent="pgYXsg9tAZO5rDnp-1l6-12" source="pgYXsg9tAZO5rDnp-1l6-24" target="pgYXsg9tAZO5rDnp-1l6-26">
          <mxGeometry relative="1" as="geometry" />
        </mxCell>
        <mxCell id="pgYXsg9tAZO5rDnp-1l6-24" value="Calcular Greencoins Para el Ciudadano&amp;nbsp;" style="whiteSpace=wrap;html=1;rounded=1;" vertex="1" parent="pgYXsg9tAZO5rDnp-1l6-12">
          <mxGeometry x="40" y="530" width="120" height="60" as="geometry" />
        </mxCell>
        <mxCell id="pgYXsg9tAZO5rDnp-1l6-25" style="edgeStyle=orthogonalEdgeStyle;rounded=0;orthogonalLoop=1;jettySize=auto;html=1;entryX=0.5;entryY=0;entryDx=0;entryDy=0;" edge="1" parent="pgYXsg9tAZO5rDnp-1l6-12" source="pgYXsg9tAZO5rDnp-1l6-26" target="pgYXsg9tAZO5rDnp-1l6-28">
          <mxGeometry relative="1" as="geometry" />
        </mxCell>
        <mxCell id="pgYXsg9tAZO5rDnp-1l6-26" value="Guardar datos en la Base de Datos" style="whiteSpace=wrap;html=1;rounded=1;" vertex="1" parent="pgYXsg9tAZO5rDnp-1l6-12">
          <mxGeometry x="40" y="610" width="120" height="60" as="geometry" />
        </mxCell>
        <mxCell id="pgYXsg9tAZO5rDnp-1l6-27" value="" style="edgeStyle=orthogonalEdgeStyle;rounded=0;orthogonalLoop=1;jettySize=auto;html=1;" edge="1" parent="pgYXsg9tAZO5rDnp-1l6-12" source="pgYXsg9tAZO5rDnp-1l6-28" target="pgYXsg9tAZO5rDnp-1l6-34">
          <mxGeometry relative="1" as="geometry" />
        </mxCell>
        <mxCell id="pgYXsg9tAZO5rDnp-1l6-28" value="Actualizar balance de Greencoins" style="whiteSpace=wrap;html=1;rounded=1;" vertex="1" parent="pgYXsg9tAZO5rDnp-1l6-12">
          <mxGeometry x="40" y="690" width="120" height="60" as="geometry" />
        </mxCell>
        <mxCell id="pgYXsg9tAZO5rDnp-1l6-29" value="Si" style="text;html=1;align=center;verticalAlign=middle;resizable=0;points=[];autosize=1;strokeColor=none;fillColor=none;" vertex="1" parent="pgYXsg9tAZO5rDnp-1l6-12">
          <mxGeometry x="100" y="500" width="30" height="30" as="geometry" />
        </mxCell>
        <mxCell id="pgYXsg9tAZO5rDnp-1l6-30" value="No" style="text;html=1;align=center;verticalAlign=middle;resizable=0;points=[];autosize=1;strokeColor=none;fillColor=none;" vertex="1" parent="pgYXsg9tAZO5rDnp-1l6-12">
          <mxGeometry x="10" y="435" width="40" height="30" as="geometry" />
        </mxCell>
        <mxCell id="pgYXsg9tAZO5rDnp-1l6-31" style="edgeStyle=orthogonalEdgeStyle;rounded=0;orthogonalLoop=1;jettySize=auto;html=1;exitX=0.5;exitY=1;exitDx=0;exitDy=0;entryX=0.5;entryY=0;entryDx=0;entryDy=0;entryPerimeter=0;" edge="1" parent="pgYXsg9tAZO5rDnp-1l6-12" source="pgYXsg9tAZO5rDnp-1l6-32" target="pgYXsg9tAZO5rDnp-1l6-33">
          <mxGeometry relative="1" as="geometry" />
        </mxCell>
        <mxCell id="pgYXsg9tAZO5rDnp-1l6-32" value="Valida los datos ingresados" style="rounded=1;whiteSpace=wrap;html=1;" vertex="1" parent="pgYXsg9tAZO5rDnp-1l6-12">
          <mxGeometry x="40" y="870" width="120" height="60" as="geometry" />
        </mxCell>
        <mxCell id="pgYXsg9tAZO5rDnp-1l6-33" value="Datos Correctos" style="strokeWidth=1;html=1;shape=mxgraph.flowchart.decision;whiteSpace=wrap;" vertex="1" parent="pgYXsg9tAZO5rDnp-1l6-12">
          <mxGeometry x="50" y="950" width="100" height="100" as="geometry" />
        </mxCell>
        <mxCell id="pgYXsg9tAZO5rDnp-1l6-34" value="Envia notificaciÃ³n al ciudadano" style="whiteSpace=wrap;html=1;rounded=1;" vertex="1" parent="pgYXsg9tAZO5rDnp-1l6-12">
          <mxGeometry x="40" y="770" width="120" height="60" as="geometry" />
        </mxCell>
        <mxCell id="pgYXsg9tAZO5rDnp-1l6-35" value="Si" style="text;html=1;align=center;verticalAlign=middle;resizable=0;points=[];autosize=1;strokeColor=none;fillColor=none;" vertex="1" parent="pgYXsg9tAZO5rDnp-1l6-12">
          <mxGeometry x="99" y="1046" width="30" height="30" as="geometry" />
        </mxCell>
        <mxCell id="pgYXsg9tAZO5rDnp-1l6-36" value="No" style="text;html=1;align=center;verticalAlign=middle;resizable=0;points=[];autosize=1;strokeColor=none;fillColor=none;" vertex="1" parent="pgYXsg9tAZO5rDnp-1l6-12">
          <mxGeometry x="15" y="970" width="40" height="30" as="geometry" />
        </mxCell>
        <mxCell id="pgYXsg9tAZO5rDnp-1l6-37" style="edgeStyle=orthogonalEdgeStyle;rounded=0;orthogonalLoop=1;jettySize=auto;html=1;entryX=0;entryY=0.5;entryDx=0;entryDy=0;" edge="1" parent="pgYXsg9tAZO5rDnp-1l6-1" source="pgYXsg9tAZO5rDnp-1l6-10" target="pgYXsg9tAZO5rDnp-1l6-13">
          <mxGeometry relative="1" as="geometry" />
        </mxCell>
        <mxCell id="pgYXsg9tAZO5rDnp-1l6-38" style="edgeStyle=orthogonalEdgeStyle;rounded=0;orthogonalLoop=1;jettySize=auto;html=1;exitX=0;exitY=0.5;exitDx=0;exitDy=0;exitPerimeter=0;entryX=0.5;entryY=1;entryDx=0;entryDy=0;" edge="1" parent="pgYXsg9tAZO5rDnp-1l6-1" source="pgYXsg9tAZO5rDnp-1l6-14" target="pgYXsg9tAZO5rDnp-1l6-10">
          <mxGeometry relative="1" as="geometry" />
        </mxCell>
        <mxCell id="pgYXsg9tAZO5rDnp-1l6-39" style="edgeStyle=orthogonalEdgeStyle;rounded=0;orthogonalLoop=1;jettySize=auto;html=1;entryX=0.5;entryY=0;entryDx=0;entryDy=0;" edge="1" parent="pgYXsg9tAZO5rDnp-1l6-1" source="pgYXsg9tAZO5rDnp-1l6-14" target="pgYXsg9tAZO5rDnp-1l6-11">
          <mxGeometry relative="1" as="geometry">
            <Array as="points">
              <mxPoint x="500" y="323" />
              <mxPoint x="300" y="323" />
            </Array>
          </mxGeometry>
        </mxCell>
        <mxCell id="pgYXsg9tAZO5rDnp-1l6-40" style="edgeStyle=orthogonalEdgeStyle;rounded=0;orthogonalLoop=1;jettySize=auto;html=1;entryX=0.5;entryY=1;entryDx=0;entryDy=0;" edge="1" parent="pgYXsg9tAZO5rDnp-1l6-1" source="pgYXsg9tAZO5rDnp-1l6-21" target="pgYXsg9tAZO5rDnp-1l6-11">
          <mxGeometry relative="1" as="geometry" />
        </mxCell>
        <mxCell id="pgYXsg9tAZO5rDnp-1l6-41" style="edgeStyle=orthogonalEdgeStyle;rounded=0;orthogonalLoop=1;jettySize=auto;html=1;entryX=0.5;entryY=0;entryDx=0;entryDy=0;" edge="1" parent="pgYXsg9tAZO5rDnp-1l6-1" source="pgYXsg9tAZO5rDnp-1l6-3" target="pgYXsg9tAZO5rDnp-1l6-32">
          <mxGeometry relative="1" as="geometry">
            <Array as="points">
              <mxPoint x="100" y="793" />
              <mxPoint x="280" y="793" />
              <mxPoint x="280" y="873" />
              <mxPoint x="500" y="873" />
            </Array>
          </mxGeometry>
        </mxCell>
        <mxCell id="pgYXsg9tAZO5rDnp-1l6-42" style="edgeStyle=orthogonalEdgeStyle;rounded=0;orthogonalLoop=1;jettySize=auto;html=1;exitX=0;exitY=0.5;exitDx=0;exitDy=0;exitPerimeter=0;entryX=0;entryY=0.5;entryDx=0;entryDy=0;" edge="1" parent="pgYXsg9tAZO5rDnp-1l6-1" source="pgYXsg9tAZO5rDnp-1l6-33" target="pgYXsg9tAZO5rDnp-1l6-3">
          <mxGeometry relative="1" as="geometry" />
        </mxCell>
        <mxCell id="pgYXsg9tAZO5rDnp-1l6-43" style="edgeStyle=orthogonalEdgeStyle;rounded=0;orthogonalLoop=1;jettySize=auto;html=1;entryX=1;entryY=0.5;entryDx=0;entryDy=0;" edge="1" parent="pgYXsg9tAZO5rDnp-1l6-1" source="pgYXsg9tAZO5rDnp-1l6-33" target="pgYXsg9tAZO5rDnp-1l6-5">
          <mxGeometry relative="1" as="geometry">
            <Array as="points">
              <mxPoint x="500" y="1100" />
              <mxPoint x="305" y="1100" />
            </Array>
          </mxGeometry>
        </mxCell>
        <mxCell id="pgYXsg9tAZO5rDnp-1l6-44" style="edgeStyle=orthogonalEdgeStyle;rounded=0;orthogonalLoop=1;jettySize=auto;html=1;exitX=0;exitY=0.5;exitDx=0;exitDy=0;entryX=1;entryY=0.5;entryDx=0;entryDy=0;" edge="1" parent="pgYXsg9tAZO5rDnp-1l6-1" source="pgYXsg9tAZO5rDnp-1l6-34" target="pgYXsg9tAZO5rDnp-1l6-3">
          <mxGeometry relative="1" as="geometry" />
        </mxCell>
        <mxCell id="pgYXsg9tAZO5rDnp-1l6-45" value="Canjeo de Ofertas" style="swimlane;startSize=30;" vertex="1" parent="1">
          <mxGeometry x="680" y="40" width="600" height="1130" as="geometry">
            <mxRectangle x="280" y="90" width="140" height="30" as="alternateBounds" />
          </mxGeometry>
        </mxCell>
        <mxCell id="pgYXsg9tAZO5rDnp-1l6-46" value="Ciudadano" style="swimlane;whiteSpace=wrap;html=1;" vertex="1" parent="pgYXsg9tAZO5rDnp-1l6-45">
          <mxGeometry y="30" width="200" height="1100" as="geometry" />
        </mxCell>
        <mxCell id="pgYXsg9tAZO5rDnp-1l6-47" value="Ingresa credenciales de acceso" style="whiteSpace=wrap;html=1;rounded=1;" vertex="1" parent="pgYXsg9tAZO5rDnp-1l6-46">
          <mxGeometry x="40" y="320" width="120" height="60" as="geometry" />
        </mxCell>
        <mxCell id="pgYXsg9tAZO5rDnp-1l6-49" value="Selecciona la oferta a canjear" style="whiteSpace=wrap;html=1;rounded=1;" vertex="1" parent="pgYXsg9tAZO5rDnp-1l6-46">
          <mxGeometry x="40" y="458.5" width="120" height="61.5" as="geometry" />
        </mxCell>
        <mxCell id="pgYXsg9tAZO5rDnp-1l6-109" style="edgeStyle=orthogonalEdgeStyle;rounded=0;orthogonalLoop=1;jettySize=auto;html=1;exitX=0;exitY=0.5;exitDx=0;exitDy=0;exitPerimeter=0;entryX=0;entryY=0.5;entryDx=0;entryDy=0;" edge="1" parent="pgYXsg9tAZO5rDnp-1l6-46" source="pgYXsg9tAZO5rDnp-1l6-106" target="pgYXsg9tAZO5rDnp-1l6-49">
          <mxGeometry relative="1" as="geometry" />
        </mxCell>
        <mxCell id="pgYXsg9tAZO5rDnp-1l6-106" value="Cuenta con Greencoins necesarios" style="strokeWidth=1;html=1;shape=mxgraph.flowchart.decision;whiteSpace=wrap;" vertex="1" parent="pgYXsg9tAZO5rDnp-1l6-46">
          <mxGeometry x="50" y="540" width="100" height="100" as="geometry" />
        </mxCell>
        <mxCell id="pgYXsg9tAZO5rDnp-1l6-110" value="Si" style="text;html=1;align=center;verticalAlign=middle;resizable=0;points=[];autosize=1;strokeColor=none;fillColor=none;" vertex="1" parent="pgYXsg9tAZO5rDnp-1l6-46">
          <mxGeometry x="150" y="550" width="30" height="30" as="geometry" />
        </mxCell>
        <mxCell id="pgYXsg9tAZO5rDnp-1l6-111" value="No" style="text;html=1;align=center;verticalAlign=middle;resizable=0;points=[];autosize=1;strokeColor=none;fillColor=none;" vertex="1" parent="pgYXsg9tAZO5rDnp-1l6-46">
          <mxGeometry x="30" y="550" width="40" height="30" as="geometry" />
        </mxCell>
        <mxCell id="pgYXsg9tAZO5rDnp-1l6-113" value="Visualiza cÃ³digo de oferta para canjear en el negocio" style="whiteSpace=wrap;html=1;rounded=1;" vertex="1" parent="pgYXsg9tAZO5rDnp-1l6-46">
          <mxGeometry x="40" y="660" width="120" height="61.5" as="geometry" />
        </mxCell>
        <mxCell id="pgYXsg9tAZO5rDnp-1l6-51" value="Negocio" style="swimlane;whiteSpace=wrap;html=1;" vertex="1" parent="pgYXsg9tAZO5rDnp-1l6-45">
          <mxGeometry x="200" y="30" width="200" height="1100" as="geometry" />
        </mxCell>
        <mxCell id="pgYXsg9tAZO5rDnp-1l6-52" style="edgeStyle=orthogonalEdgeStyle;rounded=0;orthogonalLoop=1;jettySize=auto;html=1;entryX=0.5;entryY=0;entryDx=0;entryDy=0;" edge="1" parent="pgYXsg9tAZO5rDnp-1l6-51" source="pgYXsg9tAZO5rDnp-1l6-53" target="pgYXsg9tAZO5rDnp-1l6-54">
          <mxGeometry relative="1" as="geometry" />
        </mxCell>
        <mxCell id="pgYXsg9tAZO5rDnp-1l6-53" value="" style="ellipse;fillColor=strokeColor;html=1;" vertex="1" parent="pgYXsg9tAZO5rDnp-1l6-51">
          <mxGeometry x="85" y="40" width="30" height="30" as="geometry" />
        </mxCell>
        <mxCell id="pgYXsg9tAZO5rDnp-1l6-54" value="Ingresa credenciales de acceso" style="rounded=1;whiteSpace=wrap;html=1;" vertex="1" parent="pgYXsg9tAZO5rDnp-1l6-51">
          <mxGeometry x="40" y="100" width="120" height="60" as="geometry" />
        </mxCell>
        <mxCell id="pgYXsg9tAZO5rDnp-1l6-55" value="Ingresa una nueva oferta" style="rounded=1;whiteSpace=wrap;html=1;" vertex="1" parent="pgYXsg9tAZO5rDnp-1l6-51">
          <mxGeometry x="40" y="310" width="120" height="60" as="geometry" />
        </mxCell>
        <mxCell id="pgYXsg9tAZO5rDnp-1l6-216" value="Ingresa cÃ³digo para canjear oferta" style="whiteSpace=wrap;html=1;rounded=1;" vertex="1" parent="pgYXsg9tAZO5rDnp-1l6-51">
          <mxGeometry x="40" y="740" width="120" height="61.5" as="geometry" />
        </mxCell>
        <mxCell id="pgYXsg9tAZO5rDnp-1l6-56" value="Sistema" style="swimlane;whiteSpace=wrap;html=1;" vertex="1" parent="pgYXsg9tAZO5rDnp-1l6-45">
          <mxGeometry x="400" y="30" width="200" height="1100" as="geometry" />
        </mxCell>
        <mxCell id="pgYXsg9tAZO5rDnp-1l6-57" value="Valida los datos ingresados" style="rounded=1;whiteSpace=wrap;html=1;" vertex="1" parent="pgYXsg9tAZO5rDnp-1l6-56">
          <mxGeometry x="40" y="100" width="120" height="60" as="geometry" />
        </mxCell>
        <mxCell id="pgYXsg9tAZO5rDnp-1l6-58" value="Datos Correctos" style="strokeWidth=1;html=1;shape=mxgraph.flowchart.decision;whiteSpace=wrap;" vertex="1" parent="pgYXsg9tAZO5rDnp-1l6-56">
          <mxGeometry x="50" y="180" width="100" height="100" as="geometry" />
        </mxCell>
        <mxCell id="pgYXsg9tAZO5rDnp-1l6-59" style="edgeStyle=orthogonalEdgeStyle;rounded=0;orthogonalLoop=1;jettySize=auto;html=1;entryX=0.5;entryY=0;entryDx=0;entryDy=0;entryPerimeter=0;" edge="1" parent="pgYXsg9tAZO5rDnp-1l6-56" source="pgYXsg9tAZO5rDnp-1l6-57" target="pgYXsg9tAZO5rDnp-1l6-58">
          <mxGeometry relative="1" as="geometry" />
        </mxCell>
        <mxCell id="pgYXsg9tAZO5rDnp-1l6-62" value="Si" style="text;html=1;align=center;verticalAlign=middle;resizable=0;points=[];autosize=1;strokeColor=none;fillColor=none;" vertex="1" parent="pgYXsg9tAZO5rDnp-1l6-56">
          <mxGeometry x="100" y="270" width="30" height="30" as="geometry" />
        </mxCell>
        <mxCell id="pgYXsg9tAZO5rDnp-1l6-63" value="No" style="text;html=1;align=center;verticalAlign=middle;resizable=0;points=[];autosize=1;strokeColor=none;fillColor=none;" vertex="1" parent="pgYXsg9tAZO5rDnp-1l6-56">
          <mxGeometry x="23" y="200" width="40" height="30" as="geometry" />
        </mxCell>
        <mxCell id="pgYXsg9tAZO5rDnp-1l6-75" style="edgeStyle=orthogonalEdgeStyle;rounded=0;orthogonalLoop=1;jettySize=auto;html=1;exitX=0.5;exitY=1;exitDx=0;exitDy=0;entryX=0.5;entryY=0;entryDx=0;entryDy=0;entryPerimeter=0;" edge="1" parent="pgYXsg9tAZO5rDnp-1l6-56" source="pgYXsg9tAZO5rDnp-1l6-76" target="pgYXsg9tAZO5rDnp-1l6-77">
          <mxGeometry relative="1" as="geometry" />
        </mxCell>
        <mxCell id="pgYXsg9tAZO5rDnp-1l6-76" value="Valida los datos ingresados" style="rounded=1;whiteSpace=wrap;html=1;" vertex="1" parent="pgYXsg9tAZO5rDnp-1l6-56">
          <mxGeometry x="40" y="430" width="120" height="60" as="geometry" />
        </mxCell>
        <mxCell id="pgYXsg9tAZO5rDnp-1l6-77" value="Datos Correctos" style="strokeWidth=1;html=1;shape=mxgraph.flowchart.decision;whiteSpace=wrap;" vertex="1" parent="pgYXsg9tAZO5rDnp-1l6-56">
          <mxGeometry x="50" y="510" width="100" height="100" as="geometry" />
        </mxCell>
        <mxCell id="pgYXsg9tAZO5rDnp-1l6-78" value="Envia notificaciÃ³n al ciudadano" style="whiteSpace=wrap;html=1;rounded=1;" vertex="1" parent="pgYXsg9tAZO5rDnp-1l6-56">
          <mxGeometry x="40" y="310" width="120" height="60" as="geometry" />
        </mxCell>
        <mxCell id="pgYXsg9tAZO5rDnp-1l6-79" value="Si" style="text;html=1;align=center;verticalAlign=middle;resizable=0;points=[];autosize=1;strokeColor=none;fillColor=none;" vertex="1" parent="pgYXsg9tAZO5rDnp-1l6-56">
          <mxGeometry x="99" y="599" width="30" height="30" as="geometry" />
        </mxCell>
        <mxCell id="pgYXsg9tAZO5rDnp-1l6-80" value="No" style="text;html=1;align=center;verticalAlign=middle;resizable=0;points=[];autosize=1;strokeColor=none;fillColor=none;" vertex="1" parent="pgYXsg9tAZO5rDnp-1l6-56">
          <mxGeometry x="14" y="525" width="40" height="30" as="geometry" />
        </mxCell>
        <mxCell id="pgYXsg9tAZO5rDnp-1l6-209" style="edgeStyle=orthogonalEdgeStyle;rounded=0;orthogonalLoop=1;jettySize=auto;html=1;entryX=0.5;entryY=0;entryDx=0;entryDy=0;" edge="1" parent="pgYXsg9tAZO5rDnp-1l6-56" source="pgYXsg9tAZO5rDnp-1l6-102" target="pgYXsg9tAZO5rDnp-1l6-207">
          <mxGeometry relative="1" as="geometry" />
        </mxCell>
        <mxCell id="pgYXsg9tAZO5rDnp-1l6-102" value="Reduce la cantidad de Greencoins" style="whiteSpace=wrap;html=1;rounded=1;" vertex="1" parent="pgYXsg9tAZO5rDnp-1l6-56">
          <mxGeometry x="40" y="650" width="120" height="61.5" as="geometry" />
        </mxCell>
        <mxCell id="pgYXsg9tAZO5rDnp-1l6-224" style="edgeStyle=orthogonalEdgeStyle;rounded=0;orthogonalLoop=1;jettySize=auto;html=1;entryX=0.5;entryY=0;entryDx=0;entryDy=0;" edge="1" parent="pgYXsg9tAZO5rDnp-1l6-56" source="pgYXsg9tAZO5rDnp-1l6-104" target="pgYXsg9tAZO5rDnp-1l6-222">
          <mxGeometry relative="1" as="geometry" />
        </mxCell>
        <mxCell id="pgYXsg9tAZO5rDnp-1l6-104" value="EnvÃ­a cÃ³digo de oferta para canjear en el negocio" style="whiteSpace=wrap;html=1;rounded=1;" vertex="1" parent="pgYXsg9tAZO5rDnp-1l6-56">
          <mxGeometry x="40" y="810" width="120" height="61.5" as="geometry" />
        </mxCell>
        <mxCell id="pgYXsg9tAZO5rDnp-1l6-210" style="edgeStyle=orthogonalEdgeStyle;rounded=0;orthogonalLoop=1;jettySize=auto;html=1;exitX=0.5;exitY=1;exitDx=0;exitDy=0;entryX=0.5;entryY=0;entryDx=0;entryDy=0;" edge="1" parent="pgYXsg9tAZO5rDnp-1l6-56" source="pgYXsg9tAZO5rDnp-1l6-207" target="pgYXsg9tAZO5rDnp-1l6-104">
          <mxGeometry relative="1" as="geometry" />
        </mxCell>
        <mxCell id="pgYXsg9tAZO5rDnp-1l6-207" value="Guardar cambio en la Base de Datos" style="whiteSpace=wrap;html=1;rounded=1;" vertex="1" parent="pgYXsg9tAZO5rDnp-1l6-56">
          <mxGeometry x="40" y="730" width="120" height="60" as="geometry" />
        </mxCell>
        <mxCell id="pgYXsg9tAZO5rDnp-1l6-225" style="edgeStyle=orthogonalEdgeStyle;rounded=0;orthogonalLoop=1;jettySize=auto;html=1;entryX=0.5;entryY=0;entryDx=0;entryDy=0;" edge="1" parent="pgYXsg9tAZO5rDnp-1l6-56" source="pgYXsg9tAZO5rDnp-1l6-222" target="pgYXsg9tAZO5rDnp-1l6-223">
          <mxGeometry relative="1" as="geometry" />
        </mxCell>
        <mxCell id="pgYXsg9tAZO5rDnp-1l6-222" value="Cambia estado de cÃ³digo a canjeado" style="whiteSpace=wrap;html=1;rounded=1;" vertex="1" parent="pgYXsg9tAZO5rDnp-1l6-56">
          <mxGeometry x="40" y="890" width="120" height="61.5" as="geometry" />
        </mxCell>
        <mxCell id="pgYXsg9tAZO5rDnp-1l6-226" style="edgeStyle=orthogonalEdgeStyle;rounded=0;orthogonalLoop=1;jettySize=auto;html=1;entryX=0.5;entryY=0;entryDx=0;entryDy=0;" edge="1" parent="pgYXsg9tAZO5rDnp-1l6-56" source="pgYXsg9tAZO5rDnp-1l6-223" target="pgYXsg9tAZO5rDnp-1l6-50">
          <mxGeometry relative="1" as="geometry" />
        </mxCell>
        <mxCell id="pgYXsg9tAZO5rDnp-1l6-223" value="Guardar cambio en la Base de Datos" style="whiteSpace=wrap;html=1;rounded=1;" vertex="1" parent="pgYXsg9tAZO5rDnp-1l6-56">
          <mxGeometry x="40" y="970" width="120" height="60" as="geometry" />
        </mxCell>
        <mxCell id="pgYXsg9tAZO5rDnp-1l6-50" value="" style="ellipse;html=1;shape=endState;fillColor=strokeColor;" vertex="1" parent="pgYXsg9tAZO5rDnp-1l6-56">
          <mxGeometry x="85" y="1050" width="30" height="30" as="geometry" />
        </mxCell>
        <mxCell id="pgYXsg9tAZO5rDnp-1l6-81" style="edgeStyle=orthogonalEdgeStyle;rounded=0;orthogonalLoop=1;jettySize=auto;html=1;entryX=0;entryY=0.5;entryDx=0;entryDy=0;" edge="1" parent="pgYXsg9tAZO5rDnp-1l6-45" source="pgYXsg9tAZO5rDnp-1l6-54" target="pgYXsg9tAZO5rDnp-1l6-57">
          <mxGeometry relative="1" as="geometry" />
        </mxCell>
        <mxCell id="pgYXsg9tAZO5rDnp-1l6-82" style="edgeStyle=orthogonalEdgeStyle;rounded=0;orthogonalLoop=1;jettySize=auto;html=1;exitX=0;exitY=0.5;exitDx=0;exitDy=0;exitPerimeter=0;entryX=0.5;entryY=1;entryDx=0;entryDy=0;" edge="1" parent="pgYXsg9tAZO5rDnp-1l6-45" source="pgYXsg9tAZO5rDnp-1l6-58" target="pgYXsg9tAZO5rDnp-1l6-54">
          <mxGeometry relative="1" as="geometry" />
        </mxCell>
        <mxCell id="pgYXsg9tAZO5rDnp-1l6-83" style="edgeStyle=orthogonalEdgeStyle;rounded=0;orthogonalLoop=1;jettySize=auto;html=1;entryX=0.5;entryY=0;entryDx=0;entryDy=0;" edge="1" parent="pgYXsg9tAZO5rDnp-1l6-45" source="pgYXsg9tAZO5rDnp-1l6-58" target="pgYXsg9tAZO5rDnp-1l6-55">
          <mxGeometry relative="1" as="geometry">
            <Array as="points">
              <mxPoint x="500" y="323" />
              <mxPoint x="300" y="323" />
            </Array>
          </mxGeometry>
        </mxCell>
        <mxCell id="pgYXsg9tAZO5rDnp-1l6-86" style="edgeStyle=orthogonalEdgeStyle;rounded=0;orthogonalLoop=1;jettySize=auto;html=1;exitX=0;exitY=0.5;exitDx=0;exitDy=0;exitPerimeter=0;entryX=0;entryY=0.5;entryDx=0;entryDy=0;" edge="1" parent="pgYXsg9tAZO5rDnp-1l6-45" source="pgYXsg9tAZO5rDnp-1l6-77" target="pgYXsg9tAZO5rDnp-1l6-47">
          <mxGeometry relative="1" as="geometry">
            <Array as="points">
              <mxPoint x="370" y="590" />
              <mxPoint x="370" y="460" />
              <mxPoint x="20" y="460" />
              <mxPoint x="20" y="380" />
            </Array>
          </mxGeometry>
        </mxCell>
        <mxCell id="pgYXsg9tAZO5rDnp-1l6-99" style="edgeStyle=orthogonalEdgeStyle;rounded=0;orthogonalLoop=1;jettySize=auto;html=1;" edge="1" parent="pgYXsg9tAZO5rDnp-1l6-45" source="pgYXsg9tAZO5rDnp-1l6-55" target="pgYXsg9tAZO5rDnp-1l6-78">
          <mxGeometry relative="1" as="geometry" />
        </mxCell>
        <mxCell id="pgYXsg9tAZO5rDnp-1l6-100" style="edgeStyle=orthogonalEdgeStyle;rounded=0;orthogonalLoop=1;jettySize=auto;html=1;entryX=1;entryY=0.5;entryDx=0;entryDy=0;" edge="1" parent="pgYXsg9tAZO5rDnp-1l6-45" source="pgYXsg9tAZO5rDnp-1l6-78" target="pgYXsg9tAZO5rDnp-1l6-47">
          <mxGeometry relative="1" as="geometry">
            <Array as="points">
              <mxPoint x="500" y="420" />
              <mxPoint x="180" y="420" />
              <mxPoint x="180" y="380" />
            </Array>
          </mxGeometry>
        </mxCell>
        <mxCell id="pgYXsg9tAZO5rDnp-1l6-101" style="edgeStyle=orthogonalEdgeStyle;rounded=0;orthogonalLoop=1;jettySize=auto;html=1;entryX=0.5;entryY=0;entryDx=0;entryDy=0;" edge="1" parent="pgYXsg9tAZO5rDnp-1l6-45" source="pgYXsg9tAZO5rDnp-1l6-47" target="pgYXsg9tAZO5rDnp-1l6-76">
          <mxGeometry relative="1" as="geometry">
            <Array as="points">
              <mxPoint x="100" y="440" />
              <mxPoint x="500" y="440" />
            </Array>
          </mxGeometry>
        </mxCell>
        <mxCell id="pgYXsg9tAZO5rDnp-1l6-87" style="edgeStyle=orthogonalEdgeStyle;rounded=0;orthogonalLoop=1;jettySize=auto;html=1;entryX=1;entryY=0.5;entryDx=0;entryDy=0;" edge="1" parent="pgYXsg9tAZO5rDnp-1l6-45" source="pgYXsg9tAZO5rDnp-1l6-77" target="pgYXsg9tAZO5rDnp-1l6-49">
          <mxGeometry relative="1" as="geometry">
            <Array as="points">
              <mxPoint x="500" y="660" />
              <mxPoint x="320" y="660" />
              <mxPoint x="320" y="519" />
            </Array>
          </mxGeometry>
        </mxCell>
        <mxCell id="pgYXsg9tAZO5rDnp-1l6-118" style="edgeStyle=orthogonalEdgeStyle;rounded=0;orthogonalLoop=1;jettySize=auto;html=1;exitX=1;exitY=0.5;exitDx=0;exitDy=0;exitPerimeter=0;entryX=0;entryY=0.5;entryDx=0;entryDy=0;" edge="1" parent="pgYXsg9tAZO5rDnp-1l6-45" source="pgYXsg9tAZO5rDnp-1l6-106" target="pgYXsg9tAZO5rDnp-1l6-102">
          <mxGeometry relative="1" as="geometry">
            <Array as="points">
              <mxPoint x="260" y="620" />
              <mxPoint x="260" y="710" />
              <mxPoint x="440" y="710" />
            </Array>
          </mxGeometry>
        </mxCell>
        <mxCell id="pgYXsg9tAZO5rDnp-1l6-211" style="edgeStyle=orthogonalEdgeStyle;rounded=0;orthogonalLoop=1;jettySize=auto;html=1;entryX=1;entryY=0.5;entryDx=0;entryDy=0;" edge="1" parent="pgYXsg9tAZO5rDnp-1l6-45" source="pgYXsg9tAZO5rDnp-1l6-104" target="pgYXsg9tAZO5rDnp-1l6-113">
          <mxGeometry relative="1" as="geometry">
            <Array as="points">
              <mxPoint x="380" y="861" />
              <mxPoint x="380" y="721" />
            </Array>
          </mxGeometry>
        </mxCell>
        <mxCell id="pgYXsg9tAZO5rDnp-1l6-217" style="edgeStyle=orthogonalEdgeStyle;rounded=0;orthogonalLoop=1;jettySize=auto;html=1;entryX=0;entryY=0.5;entryDx=0;entryDy=0;" edge="1" parent="pgYXsg9tAZO5rDnp-1l6-45" source="pgYXsg9tAZO5rDnp-1l6-113" target="pgYXsg9tAZO5rDnp-1l6-216">
          <mxGeometry relative="1" as="geometry">
            <Array as="points">
              <mxPoint x="100" y="801" />
            </Array>
          </mxGeometry>
        </mxCell>
        <mxCell id="pgYXsg9tAZO5rDnp-1l6-163" value="AdministraciÃ³n de Puntos Verdes" style="swimlane;startSize=30;" vertex="1" parent="1">
          <mxGeometry x="1320" y="40" width="600" height="840" as="geometry">
            <mxRectangle x="1320" y="40" width="140" height="30" as="alternateBounds" />
          </mxGeometry>
        </mxCell>
        <mxCell id="pgYXsg9tAZO5rDnp-1l6-164" value="Ciudadano" style="swimlane;whiteSpace=wrap;html=1;" vertex="1" parent="pgYXsg9tAZO5rDnp-1l6-163">
          <mxGeometry y="30" width="200" height="810" as="geometry" />
        </mxCell>
        <mxCell id="pgYXsg9tAZO5rDnp-1l6-165" value="Ingresa credenciales de acceso" style="whiteSpace=wrap;html=1;rounded=1;" vertex="1" parent="pgYXsg9tAZO5rDnp-1l6-164">
          <mxGeometry x="40" y="90" width="120" height="60" as="geometry" />
        </mxCell>
        <mxCell id="pgYXsg9tAZO5rDnp-1l6-166" style="edgeStyle=orthogonalEdgeStyle;rounded=0;orthogonalLoop=1;jettySize=auto;html=1;entryX=0.5;entryY=0;entryDx=0;entryDy=0;" edge="1" parent="pgYXsg9tAZO5rDnp-1l6-164" source="pgYXsg9tAZO5rDnp-1l6-167" target="pgYXsg9tAZO5rDnp-1l6-168">
          <mxGeometry relative="1" as="geometry" />
        </mxCell>
        <mxCell id="pgYXsg9tAZO5rDnp-1l6-167" value="Visualiza notificaciÃ³n del nuevo punto verde" style="whiteSpace=wrap;html=1;rounded=1;" vertex="1" parent="pgYXsg9tAZO5rDnp-1l6-164">
          <mxGeometry x="30" y="670" width="120" height="70" as="geometry" />
        </mxCell>
        <mxCell id="pgYXsg9tAZO5rDnp-1l6-168" value="" style="ellipse;html=1;shape=endState;fillColor=strokeColor;" vertex="1" parent="pgYXsg9tAZO5rDnp-1l6-164">
          <mxGeometry x="75" y="760" width="30" height="30" as="geometry" />
        </mxCell>
        <mxCell id="pgYXsg9tAZO5rDnp-1l6-169" value="Negocio" style="swimlane;whiteSpace=wrap;html=1;" vertex="1" parent="pgYXsg9tAZO5rDnp-1l6-163">
          <mxGeometry x="200" y="30" width="200" height="810" as="geometry" />
        </mxCell>
        <mxCell id="pgYXsg9tAZO5rDnp-1l6-170" style="edgeStyle=orthogonalEdgeStyle;rounded=0;orthogonalLoop=1;jettySize=auto;html=1;entryX=0.5;entryY=0;entryDx=0;entryDy=0;" edge="1" parent="pgYXsg9tAZO5rDnp-1l6-169" source="pgYXsg9tAZO5rDnp-1l6-171" target="pgYXsg9tAZO5rDnp-1l6-172">
          <mxGeometry relative="1" as="geometry" />
        </mxCell>
        <mxCell id="pgYXsg9tAZO5rDnp-1l6-171" value="" style="ellipse;fillColor=strokeColor;html=1;" vertex="1" parent="pgYXsg9tAZO5rDnp-1l6-169">
          <mxGeometry x="85" y="40" width="30" height="30" as="geometry" />
        </mxCell>
        <mxCell id="pgYXsg9tAZO5rDnp-1l6-172" value="Ingresa credenciales de acceso" style="rounded=1;whiteSpace=wrap;html=1;" vertex="1" parent="pgYXsg9tAZO5rDnp-1l6-169">
          <mxGeometry x="40" y="100" width="120" height="60" as="geometry" />
        </mxCell>
        <mxCell id="pgYXsg9tAZO5rDnp-1l6-173" value="Registra nuevo punto verde" style="rounded=1;whiteSpace=wrap;html=1;" vertex="1" parent="pgYXsg9tAZO5rDnp-1l6-169">
          <mxGeometry x="40" y="310" width="120" height="60" as="geometry" />
        </mxCell>
        <mxCell id="pgYXsg9tAZO5rDnp-1l6-174" value="Sistema" style="swimlane;whiteSpace=wrap;html=1;" vertex="1" parent="pgYXsg9tAZO5rDnp-1l6-163">
          <mxGeometry x="400" y="30" width="200" height="810" as="geometry" />
        </mxCell>
        <mxCell id="pgYXsg9tAZO5rDnp-1l6-175" value="Valida los datos ingresados" style="rounded=1;whiteSpace=wrap;html=1;" vertex="1" parent="pgYXsg9tAZO5rDnp-1l6-174">
          <mxGeometry x="40" y="100" width="120" height="60" as="geometry" />
        </mxCell>
        <mxCell id="pgYXsg9tAZO5rDnp-1l6-176" value="Datos Correctos" style="strokeWidth=1;html=1;shape=mxgraph.flowchart.decision;whiteSpace=wrap;" vertex="1" parent="pgYXsg9tAZO5rDnp-1l6-174">
          <mxGeometry x="50" y="180" width="100" height="100" as="geometry" />
        </mxCell>
        <mxCell id="pgYXsg9tAZO5rDnp-1l6-177" style="edgeStyle=orthogonalEdgeStyle;rounded=0;orthogonalLoop=1;jettySize=auto;html=1;entryX=0.5;entryY=0;entryDx=0;entryDy=0;entryPerimeter=0;" edge="1" parent="pgYXsg9tAZO5rDnp-1l6-174" source="pgYXsg9tAZO5rDnp-1l6-175" target="pgYXsg9tAZO5rDnp-1l6-176">
          <mxGeometry relative="1" as="geometry" />
        </mxCell>
        <mxCell id="pgYXsg9tAZO5rDnp-1l6-180" value="Si" style="text;html=1;align=center;verticalAlign=middle;resizable=0;points=[];autosize=1;strokeColor=none;fillColor=none;" vertex="1" parent="pgYXsg9tAZO5rDnp-1l6-174">
          <mxGeometry x="100" y="270" width="30" height="30" as="geometry" />
        </mxCell>
        <mxCell id="pgYXsg9tAZO5rDnp-1l6-181" value="No" style="text;html=1;align=center;verticalAlign=middle;resizable=0;points=[];autosize=1;strokeColor=none;fillColor=none;" vertex="1" parent="pgYXsg9tAZO5rDnp-1l6-174">
          <mxGeometry x="23" y="200" width="40" height="30" as="geometry" />
        </mxCell>
        <mxCell id="pgYXsg9tAZO5rDnp-1l6-214" style="edgeStyle=orthogonalEdgeStyle;rounded=0;orthogonalLoop=1;jettySize=auto;html=1;entryX=0.5;entryY=0;entryDx=0;entryDy=0;" edge="1" parent="pgYXsg9tAZO5rDnp-1l6-174" source="pgYXsg9tAZO5rDnp-1l6-188" target="pgYXsg9tAZO5rDnp-1l6-196">
          <mxGeometry relative="1" as="geometry" />
        </mxCell>
        <mxCell id="pgYXsg9tAZO5rDnp-1l6-188" value="Guardar datos en la Base de Datos" style="whiteSpace=wrap;html=1;rounded=1;" vertex="1" parent="pgYXsg9tAZO5rDnp-1l6-174">
          <mxGeometry x="40" y="310" width="120" height="60" as="geometry" />
        </mxCell>
        <mxCell id="pgYXsg9tAZO5rDnp-1l6-193" style="edgeStyle=orthogonalEdgeStyle;rounded=0;orthogonalLoop=1;jettySize=auto;html=1;exitX=0.5;exitY=1;exitDx=0;exitDy=0;entryX=0.5;entryY=0;entryDx=0;entryDy=0;entryPerimeter=0;" edge="1" parent="pgYXsg9tAZO5rDnp-1l6-174" source="pgYXsg9tAZO5rDnp-1l6-194" target="pgYXsg9tAZO5rDnp-1l6-195">
          <mxGeometry relative="1" as="geometry" />
        </mxCell>
        <mxCell id="pgYXsg9tAZO5rDnp-1l6-194" value="Valida los datos ingresados" style="rounded=1;whiteSpace=wrap;html=1;" vertex="1" parent="pgYXsg9tAZO5rDnp-1l6-174">
          <mxGeometry x="40" y="470" width="120" height="60" as="geometry" />
        </mxCell>
        <mxCell id="pgYXsg9tAZO5rDnp-1l6-195" value="Datos Correctos" style="strokeWidth=1;html=1;shape=mxgraph.flowchart.decision;whiteSpace=wrap;" vertex="1" parent="pgYXsg9tAZO5rDnp-1l6-174">
          <mxGeometry x="50" y="550" width="100" height="100" as="geometry" />
        </mxCell>
        <mxCell id="pgYXsg9tAZO5rDnp-1l6-196" value="Envia notificaciÃ³n al ciudadano" style="whiteSpace=wrap;html=1;rounded=1;" vertex="1" parent="pgYXsg9tAZO5rDnp-1l6-174">
          <mxGeometry x="40" y="390" width="120" height="60" as="geometry" />
        </mxCell>
        <mxCell id="pgYXsg9tAZO5rDnp-1l6-197" value="Si" style="text;html=1;align=center;verticalAlign=middle;resizable=0;points=[];autosize=1;strokeColor=none;fillColor=none;" vertex="1" parent="pgYXsg9tAZO5rDnp-1l6-174">
          <mxGeometry x="100" y="650" width="30" height="30" as="geometry" />
        </mxCell>
        <mxCell id="pgYXsg9tAZO5rDnp-1l6-198" value="No" style="text;html=1;align=center;verticalAlign=middle;resizable=0;points=[];autosize=1;strokeColor=none;fillColor=none;" vertex="1" parent="pgYXsg9tAZO5rDnp-1l6-174">
          <mxGeometry x="10" y="570" width="40" height="30" as="geometry" />
        </mxCell>
        <mxCell id="pgYXsg9tAZO5rDnp-1l6-199" style="edgeStyle=orthogonalEdgeStyle;rounded=0;orthogonalLoop=1;jettySize=auto;html=1;entryX=0;entryY=0.5;entryDx=0;entryDy=0;" edge="1" parent="pgYXsg9tAZO5rDnp-1l6-163" source="pgYXsg9tAZO5rDnp-1l6-172" target="pgYXsg9tAZO5rDnp-1l6-175">
          <mxGeometry relative="1" as="geometry" />
        </mxCell>
        <mxCell id="pgYXsg9tAZO5rDnp-1l6-200" style="edgeStyle=orthogonalEdgeStyle;rounded=0;orthogonalLoop=1;jettySize=auto;html=1;exitX=0;exitY=0.5;exitDx=0;exitDy=0;exitPerimeter=0;entryX=0.5;entryY=1;entryDx=0;entryDy=0;" edge="1" parent="pgYXsg9tAZO5rDnp-1l6-163" source="pgYXsg9tAZO5rDnp-1l6-176" target="pgYXsg9tAZO5rDnp-1l6-172">
          <mxGeometry relative="1" as="geometry" />
        </mxCell>
        <mxCell id="pgYXsg9tAZO5rDnp-1l6-201" style="edgeStyle=orthogonalEdgeStyle;rounded=0;orthogonalLoop=1;jettySize=auto;html=1;entryX=0.5;entryY=0;entryDx=0;entryDy=0;" edge="1" parent="pgYXsg9tAZO5rDnp-1l6-163" source="pgYXsg9tAZO5rDnp-1l6-176" target="pgYXsg9tAZO5rDnp-1l6-173">
          <mxGeometry relative="1" as="geometry">
            <Array as="points">
              <mxPoint x="500" y="323" />
              <mxPoint x="300" y="323" />
            </Array>
          </mxGeometry>
        </mxCell>
        <mxCell id="pgYXsg9tAZO5rDnp-1l6-204" style="edgeStyle=orthogonalEdgeStyle;rounded=0;orthogonalLoop=1;jettySize=auto;html=1;exitX=0;exitY=0.5;exitDx=0;exitDy=0;exitPerimeter=0;entryX=0;entryY=0.5;entryDx=0;entryDy=0;" edge="1" parent="pgYXsg9tAZO5rDnp-1l6-163" source="pgYXsg9tAZO5rDnp-1l6-195" target="pgYXsg9tAZO5rDnp-1l6-165">
          <mxGeometry relative="1" as="geometry" />
        </mxCell>
        <mxCell id="pgYXsg9tAZO5rDnp-1l6-205" style="edgeStyle=orthogonalEdgeStyle;rounded=0;orthogonalLoop=1;jettySize=auto;html=1;entryX=1;entryY=0.5;entryDx=0;entryDy=0;" edge="1" parent="pgYXsg9tAZO5rDnp-1l6-163" source="pgYXsg9tAZO5rDnp-1l6-195" target="pgYXsg9tAZO5rDnp-1l6-167">
          <mxGeometry relative="1" as="geometry">
            <Array as="points">
              <mxPoint x="500" y="735" />
            </Array>
          </mxGeometry>
        </mxCell>
        <mxCell id="pgYXsg9tAZO5rDnp-1l6-206" style="edgeStyle=orthogonalEdgeStyle;rounded=0;orthogonalLoop=1;jettySize=auto;html=1;exitX=0;exitY=0.5;exitDx=0;exitDy=0;entryX=1;entryY=0.5;entryDx=0;entryDy=0;" edge="1" parent="pgYXsg9tAZO5rDnp-1l6-163" source="pgYXsg9tAZO5rDnp-1l6-196" target="pgYXsg9tAZO5rDnp-1l6-165">
          <mxGeometry relative="1" as="geometry">
            <Array as="points">
              <mxPoint x="180" y="450" />
              <mxPoint x="180" y="150" />
            </Array>
          </mxGeometry>
        </mxCell>
        <mxCell id="pgYXsg9tAZO5rDnp-1l6-212" style="edgeStyle=orthogonalEdgeStyle;rounded=0;orthogonalLoop=1;jettySize=auto;html=1;entryX=0;entryY=0.5;entryDx=0;entryDy=0;" edge="1" parent="pgYXsg9tAZO5rDnp-1l6-163" source="pgYXsg9tAZO5rDnp-1l6-173">
          <mxGeometry relative="1" as="geometry">
            <mxPoint x="440" y="370" as="targetPoint" />
          </mxGeometry>
        </mxCell>
        <mxCell id="pgYXsg9tAZO5rDnp-1l6-215" style="edgeStyle=orthogonalEdgeStyle;rounded=0;orthogonalLoop=1;jettySize=auto;html=1;entryX=0;entryY=0.5;entryDx=0;entryDy=0;" edge="1" parent="pgYXsg9tAZO5rDnp-1l6-163" source="pgYXsg9tAZO5rDnp-1l6-165" target="pgYXsg9tAZO5rDnp-1l6-194">
          <mxGeometry relative="1" as="geometry">
            <Array as="points">
              <mxPoint x="100" y="530" />
            </Array>
          </mxGeometry>
        </mxCell>
        <mxCell id="pgYXsg9tAZO5rDnp-1l6-227" value="AdministraciÃ³n de Ofertas" style="swimlane;startSize=30;" vertex="1" parent="1">
          <mxGeometry x="1960" y="40" width="600" height="840" as="geometry">
            <mxRectangle x="2010" y="50" width="140" height="30" as="alternateBounds" />
          </mxGeometry>
        </mxCell>
        <mxCell id="pgYXsg9tAZO5rDnp-1l6-228" value="Ciudadano" style="swimlane;whiteSpace=wrap;html=1;" vertex="1" parent="pgYXsg9tAZO5rDnp-1l6-227">
          <mxGeometry y="30" width="200" height="810" as="geometry" />
        </mxCell>
        <mxCell id="pgYXsg9tAZO5rDnp-1l6-229" value="Ingresa credenciales de acceso" style="whiteSpace=wrap;html=1;rounded=1;" vertex="1" parent="pgYXsg9tAZO5rDnp-1l6-228">
          <mxGeometry x="40" y="90" width="120" height="60" as="geometry" />
        </mxCell>
        <mxCell id="pgYXsg9tAZO5rDnp-1l6-230" style="edgeStyle=orthogonalEdgeStyle;rounded=0;orthogonalLoop=1;jettySize=auto;html=1;entryX=0.5;entryY=0;entryDx=0;entryDy=0;" edge="1" parent="pgYXsg9tAZO5rDnp-1l6-228" source="pgYXsg9tAZO5rDnp-1l6-231" target="pgYXsg9tAZO5rDnp-1l6-232">
          <mxGeometry relative="1" as="geometry" />
        </mxCell>
        <mxCell id="pgYXsg9tAZO5rDnp-1l6-231" value="Visualiza notificaciÃ³n del nuevo punto verde" style="whiteSpace=wrap;html=1;rounded=1;" vertex="1" parent="pgYXsg9tAZO5rDnp-1l6-228">
          <mxGeometry x="30" y="670" width="120" height="70" as="geometry" />
        </mxCell>
        <mxCell id="pgYXsg9tAZO5rDnp-1l6-232" value="" style="ellipse;html=1;shape=endState;fillColor=strokeColor;" vertex="1" parent="pgYXsg9tAZO5rDnp-1l6-228">
          <mxGeometry x="75" y="760" width="30" height="30" as="geometry" />
        </mxCell>
        <mxCell id="pgYXsg9tAZO5rDnp-1l6-233" value="Negocio" style="swimlane;whiteSpace=wrap;html=1;" vertex="1" parent="pgYXsg9tAZO5rDnp-1l6-227">
          <mxGeometry x="200" y="30" width="200" height="810" as="geometry" />
        </mxCell>
        <mxCell id="pgYXsg9tAZO5rDnp-1l6-234" style="edgeStyle=orthogonalEdgeStyle;rounded=0;orthogonalLoop=1;jettySize=auto;html=1;entryX=0.5;entryY=0;entryDx=0;entryDy=0;" edge="1" parent="pgYXsg9tAZO5rDnp-1l6-233" source="pgYXsg9tAZO5rDnp-1l6-235" target="pgYXsg9tAZO5rDnp-1l6-236">
          <mxGeometry relative="1" as="geometry" />
        </mxCell>
        <mxCell id="pgYXsg9tAZO5rDnp-1l6-235" value="" style="ellipse;fillColor=strokeColor;html=1;" vertex="1" parent="pgYXsg9tAZO5rDnp-1l6-233">
          <mxGeometry x="85" y="40" width="30" height="30" as="geometry" />
        </mxCell>
        <mxCell id="pgYXsg9tAZO5rDnp-1l6-236" value="Ingresa credenciales de acceso" style="rounded=1;whiteSpace=wrap;html=1;" vertex="1" parent="pgYXsg9tAZO5rDnp-1l6-233">
          <mxGeometry x="40" y="100" width="120" height="60" as="geometry" />
        </mxCell>
        <mxCell id="pgYXsg9tAZO5rDnp-1l6-237" value="Registra nueva oferta" style="rounded=1;whiteSpace=wrap;html=1;" vertex="1" parent="pgYXsg9tAZO5rDnp-1l6-233">
          <mxGeometry x="40" y="310" width="120" height="60" as="geometry" />
        </mxCell>
        <mxCell id="pgYXsg9tAZO5rDnp-1l6-238" value="Sistema" style="swimlane;whiteSpace=wrap;html=1;" vertex="1" parent="pgYXsg9tAZO5rDnp-1l6-227">
          <mxGeometry x="400" y="30" width="200" height="810" as="geometry" />
        </mxCell>
        <mxCell id="pgYXsg9tAZO5rDnp-1l6-239" value="Valida los datos ingresados" style="rounded=1;whiteSpace=wrap;html=1;" vertex="1" parent="pgYXsg9tAZO5rDnp-1l6-238">
          <mxGeometry x="40" y="100" width="120" height="60" as="geometry" />
        </mxCell>
        <mxCell id="pgYXsg9tAZO5rDnp-1l6-240" value="Datos Correctos" style="strokeWidth=1;html=1;shape=mxgraph.flowchart.decision;whiteSpace=wrap;" vertex="1" parent="pgYXsg9tAZO5rDnp-1l6-238">
          <mxGeometry x="50" y="180" width="100" height="100" as="geometry" />
        </mxCell>
        <mxCell id="pgYXsg9tAZO5rDnp-1l6-241" style="edgeStyle=orthogonalEdgeStyle;rounded=0;orthogonalLoop=1;jettySize=auto;html=1;entryX=0.5;entryY=0;entryDx=0;entryDy=0;entryPerimeter=0;" edge="1" parent="pgYXsg9tAZO5rDnp-1l6-238" source="pgYXsg9tAZO5rDnp-1l6-239" target="pgYXsg9tAZO5rDnp-1l6-240">
          <mxGeometry relative="1" as="geometry" />
        </mxCell>
        <mxCell id="pgYXsg9tAZO5rDnp-1l6-242" value="Si" style="text;html=1;align=center;verticalAlign=middle;resizable=0;points=[];autosize=1;strokeColor=none;fillColor=none;" vertex="1" parent="pgYXsg9tAZO5rDnp-1l6-238">
          <mxGeometry x="100" y="270" width="30" height="30" as="geometry" />
        </mxCell>
        <mxCell id="pgYXsg9tAZO5rDnp-1l6-243" value="No" style="text;html=1;align=center;verticalAlign=middle;resizable=0;points=[];autosize=1;strokeColor=none;fillColor=none;" vertex="1" parent="pgYXsg9tAZO5rDnp-1l6-238">
          <mxGeometry x="23" y="200" width="40" height="30" as="geometry" />
        </mxCell>
        <mxCell id="pgYXsg9tAZO5rDnp-1l6-244" style="edgeStyle=orthogonalEdgeStyle;rounded=0;orthogonalLoop=1;jettySize=auto;html=1;entryX=0.5;entryY=0;entryDx=0;entryDy=0;" edge="1" parent="pgYXsg9tAZO5rDnp-1l6-238" source="pgYXsg9tAZO5rDnp-1l6-245" target="pgYXsg9tAZO5rDnp-1l6-249">
          <mxGeometry relative="1" as="geometry" />
        </mxCell>
        <mxCell id="pgYXsg9tAZO5rDnp-1l6-245" value="Guardar datos en la Base de Datos" style="whiteSpace=wrap;html=1;rounded=1;" vertex="1" parent="pgYXsg9tAZO5rDnp-1l6-238">
          <mxGeometry x="40" y="310" width="120" height="60" as="geometry" />
        </mxCell>
        <mxCell id="pgYXsg9tAZO5rDnp-1l6-246" style="edgeStyle=orthogonalEdgeStyle;rounded=0;orthogonalLoop=1;jettySize=auto;html=1;exitX=0.5;exitY=1;exitDx=0;exitDy=0;entryX=0.5;entryY=0;entryDx=0;entryDy=0;entryPerimeter=0;" edge="1" parent="pgYXsg9tAZO5rDnp-1l6-238" source="pgYXsg9tAZO5rDnp-1l6-247" target="pgYXsg9tAZO5rDnp-1l6-248">
          <mxGeometry relative="1" as="geometry" />
        </mxCell>
        <mxCell id="pgYXsg9tAZO5rDnp-1l6-247" value="Valida los datos ingresados" style="rounded=1;whiteSpace=wrap;html=1;" vertex="1" parent="pgYXsg9tAZO5rDnp-1l6-238">
          <mxGeometry x="40" y="470" width="120" height="60" as="geometry" />
        </mxCell>
        <mxCell id="pgYXsg9tAZO5rDnp-1l6-248" value="Datos Correctos" style="strokeWidth=1;html=1;shape=mxgraph.flowchart.decision;whiteSpace=wrap;" vertex="1" parent="pgYXsg9tAZO5rDnp-1l6-238">
          <mxGeometry x="50" y="550" width="100" height="100" as="geometry" />
        </mxCell>
        <mxCell id="pgYXsg9tAZO5rDnp-1l6-249" value="Envia notificaciÃ³n al ciudadano" style="whiteSpace=wrap;html=1;rounded=1;" vertex="1" parent="pgYXsg9tAZO5rDnp-1l6-238">
          <mxGeometry x="40" y="390" width="120" height="60" as="geometry" />
        </mxCell>
        <mxCell id="pgYXsg9tAZO5rDnp-1l6-250" value="Si" style="text;html=1;align=center;verticalAlign=middle;resizable=0;points=[];autosize=1;strokeColor=none;fillColor=none;" vertex="1" parent="pgYXsg9tAZO5rDnp-1l6-238">
          <mxGeometry x="100" y="650" width="30" height="30" as="geometry" />
        </mxCell>
        <mxCell id="pgYXsg9tAZO5rDnp-1l6-251" value="No" style="text;html=1;align=center;verticalAlign=middle;resizable=0;points=[];autosize=1;strokeColor=none;fillColor=none;" vertex="1" parent="pgYXsg9tAZO5rDnp-1l6-238">
          <mxGeometry x="10" y="570" width="40" height="30" as="geometry" />
        </mxCell>
        <mxCell id="pgYXsg9tAZO5rDnp-1l6-252" style="edgeStyle=orthogonalEdgeStyle;rounded=0;orthogonalLoop=1;jettySize=auto;html=1;entryX=0;entryY=0.5;entryDx=0;entryDy=0;" edge="1" parent="pgYXsg9tAZO5rDnp-1l6-227" source="pgYXsg9tAZO5rDnp-1l6-236" target="pgYXsg9tAZO5rDnp-1l6-239">
          <mxGeometry relative="1" as="geometry" />
        </mxCell>
        <mxCell id="pgYXsg9tAZO5rDnp-1l6-253" style="edgeStyle=orthogonalEdgeStyle;rounded=0;orthogonalLoop=1;jettySize=auto;html=1;exitX=0;exitY=0.5;exitDx=0;exitDy=0;exitPerimeter=0;entryX=0.5;entryY=1;entryDx=0;entryDy=0;" edge="1" parent="pgYXsg9tAZO5rDnp-1l6-227" source="pgYXsg9tAZO5rDnp-1l6-240" target="pgYXsg9tAZO5rDnp-1l6-236">
          <mxGeometry relative="1" as="geometry" />
        </mxCell>
        <mxCell id="pgYXsg9tAZO5rDnp-1l6-254" style="edgeStyle=orthogonalEdgeStyle;rounded=0;orthogonalLoop=1;jettySize=auto;html=1;entryX=0.5;entryY=0;entryDx=0;entryDy=0;" edge="1" parent="pgYXsg9tAZO5rDnp-1l6-227" source="pgYXsg9tAZO5rDnp-1l6-240" target="pgYXsg9tAZO5rDnp-1l6-237">
          <mxGeometry relative="1" as="geometry">
            <Array as="points">
              <mxPoint x="500" y="323" />
              <mxPoint x="300" y="323" />
            </Array>
          </mxGeometry>
        </mxCell>
        <mxCell id="pgYXsg9tAZO5rDnp-1l6-255" style="edgeStyle=orthogonalEdgeStyle;rounded=0;orthogonalLoop=1;jettySize=auto;html=1;exitX=0;exitY=0.5;exitDx=0;exitDy=0;exitPerimeter=0;entryX=0;entryY=0.5;entryDx=0;entryDy=0;" edge="1" parent="pgYXsg9tAZO5rDnp-1l6-227" source="pgYXsg9tAZO5rDnp-1l6-248" target="pgYXsg9tAZO5rDnp-1l6-229">
          <mxGeometry relative="1" as="geometry" />
        </mxCell>
        <mxCell id="pgYXsg9tAZO5rDnp-1l6-256" style="edgeStyle=orthogonalEdgeStyle;rounded=0;orthogonalLoop=1;jettySize=auto;html=1;entryX=1;entryY=0.5;entryDx=0;entryDy=0;" edge="1" parent="pgYXsg9tAZO5rDnp-1l6-227" source="pgYXsg9tAZO5rDnp-1l6-248" target="pgYXsg9tAZO5rDnp-1l6-231">
          <mxGeometry relative="1" as="geometry">
            <Array as="points">
              <mxPoint x="500" y="735" />
            </Array>
          </mxGeometry>
        </mxCell>
        <mxCell id="pgYXsg9tAZO5rDnp-1l6-257" style="edgeStyle=orthogonalEdgeStyle;rounded=0;orthogonalLoop=1;jettySize=auto;html=1;exitX=0;exitY=0.5;exitDx=0;exitDy=0;entryX=1;entryY=0.5;entryDx=0;entryDy=0;" edge="1" parent="pgYXsg9tAZO5rDnp-1l6-227" source="pgYXsg9tAZO5rDnp-1l6-249" target="pgYXsg9tAZO5rDnp-1l6-229">
          <mxGeometry relative="1" as="geometry">
            <Array as="points">
              <mxPoint x="180" y="450" />
              <mxPoint x="180" y="150" />
            </Array>
          </mxGeometry>
        </mxCell>
        <mxCell id="pgYXsg9tAZO5rDnp-1l6-258" style="edgeStyle=orthogonalEdgeStyle;rounded=0;orthogonalLoop=1;jettySize=auto;html=1;entryX=0;entryY=0.5;entryDx=0;entryDy=0;" edge="1" parent="pgYXsg9tAZO5rDnp-1l6-227" source="pgYXsg9tAZO5rDnp-1l6-237">
          <mxGeometry relative="1" as="geometry">
            <mxPoint x="440" y="370" as="targetPoint" />
          </mxGeometry>
        </mxCell>
        <mxCell id="pgYXsg9tAZO5rDnp-1l6-259" style="edgeStyle=orthogonalEdgeStyle;rounded=0;orthogonalLoop=1;jettySize=auto;html=1;entryX=0;entryY=0.5;entryDx=0;entryDy=0;" edge="1" parent="pgYXsg9tAZO5rDnp-1l6-227" source="pgYXsg9tAZO5rDnp-1l6-229" target="pgYXsg9tAZO5rDnp-1l6-247">
          <mxGeometry relative="1" as="geometry">
            <Array as="points">
              <mxPoint x="100" y="530" />
            </Array>
          </mxGeometry>
        </mxCell>
        <mxCell id="pgYXsg9tAZO5rDnp-1l6-260" value="AdministraciÃ³n de Negocios" style="swimlane;startSize=30;" vertex="1" parent="1">
          <mxGeometry x="2600" y="40" width="600" height="740" as="geometry">
            <mxRectangle x="2600" y="40" width="140" height="30" as="alternateBounds" />
          </mxGeometry>
        </mxCell>
        <mxCell id="pgYXsg9tAZO5rDnp-1l6-261" value="Administrador" style="swimlane;whiteSpace=wrap;html=1;startSize=23;" vertex="1" parent="pgYXsg9tAZO5rDnp-1l6-260">
          <mxGeometry y="30" width="200" height="710" as="geometry" />
        </mxCell>
        <mxCell id="pgYXsg9tAZO5rDnp-1l6-263" style="edgeStyle=orthogonalEdgeStyle;rounded=0;orthogonalLoop=1;jettySize=auto;html=1;entryX=0.5;entryY=0;entryDx=0;entryDy=0;" edge="1" parent="pgYXsg9tAZO5rDnp-1l6-261" source="pgYXsg9tAZO5rDnp-1l6-264" target="pgYXsg9tAZO5rDnp-1l6-265">
          <mxGeometry relative="1" as="geometry" />
        </mxCell>
        <mxCell id="pgYXsg9tAZO5rDnp-1l6-264" value="Visualiza notificaciÃ³n del nuevo punto verde" style="whiteSpace=wrap;html=1;rounded=1;" vertex="1" parent="pgYXsg9tAZO5rDnp-1l6-261">
          <mxGeometry x="30" y="565" width="120" height="70" as="geometry" />
        </mxCell>
        <mxCell id="pgYXsg9tAZO5rDnp-1l6-265" value="" style="ellipse;html=1;shape=endState;fillColor=strokeColor;" vertex="1" parent="pgYXsg9tAZO5rDnp-1l6-261">
          <mxGeometry x="75" y="660" width="30" height="30" as="geometry" />
        </mxCell>
        <mxCell id="pgYXsg9tAZO5rDnp-1l6-294" style="edgeStyle=orthogonalEdgeStyle;rounded=0;orthogonalLoop=1;jettySize=auto;html=1;entryX=0.5;entryY=0;entryDx=0;entryDy=0;" edge="1" parent="pgYXsg9tAZO5rDnp-1l6-261" source="pgYXsg9tAZO5rDnp-1l6-268" target="pgYXsg9tAZO5rDnp-1l6-269">
          <mxGeometry relative="1" as="geometry" />
        </mxCell>
        <mxCell id="pgYXsg9tAZO5rDnp-1l6-268" value="" style="ellipse;fillColor=strokeColor;html=1;" vertex="1" parent="pgYXsg9tAZO5rDnp-1l6-261">
          <mxGeometry x="85" y="40" width="30" height="30" as="geometry" />
        </mxCell>
        <mxCell id="pgYXsg9tAZO5rDnp-1l6-269" value="Ingresa credenciales de acceso" style="rounded=1;whiteSpace=wrap;html=1;" vertex="1" parent="pgYXsg9tAZO5rDnp-1l6-261">
          <mxGeometry x="40" y="90" width="120" height="60" as="geometry" />
        </mxCell>
        <mxCell id="pgYXsg9tAZO5rDnp-1l6-270" value="Registra nuevo negocio" style="rounded=1;whiteSpace=wrap;html=1;" vertex="1" parent="pgYXsg9tAZO5rDnp-1l6-261">
          <mxGeometry x="40" y="310" width="120" height="60" as="geometry" />
        </mxCell>
        <mxCell id="pgYXsg9tAZO5rDnp-1l6-266" value="Sistema" style="swimlane;whiteSpace=wrap;html=1;" vertex="1" parent="pgYXsg9tAZO5rDnp-1l6-260">
          <mxGeometry x="200" y="30" width="200" height="710" as="geometry" />
        </mxCell>
        <mxCell id="pgYXsg9tAZO5rDnp-1l6-272" value="Valida los datos ingresados" style="rounded=1;whiteSpace=wrap;html=1;" vertex="1" parent="pgYXsg9tAZO5rDnp-1l6-266">
          <mxGeometry x="50" y="90" width="120" height="60" as="geometry" />
        </mxCell>
        <mxCell id="pgYXsg9tAZO5rDnp-1l6-273" value="Datos Correctos" style="strokeWidth=1;html=1;shape=mxgraph.flowchart.decision;whiteSpace=wrap;" vertex="1" parent="pgYXsg9tAZO5rDnp-1l6-266">
          <mxGeometry x="60" y="170" width="100" height="100" as="geometry" />
        </mxCell>
        <mxCell id="pgYXsg9tAZO5rDnp-1l6-274" style="edgeStyle=orthogonalEdgeStyle;rounded=0;orthogonalLoop=1;jettySize=auto;html=1;entryX=0.5;entryY=0;entryDx=0;entryDy=0;entryPerimeter=0;" edge="1" parent="pgYXsg9tAZO5rDnp-1l6-266" source="pgYXsg9tAZO5rDnp-1l6-272" target="pgYXsg9tAZO5rDnp-1l6-273">
          <mxGeometry relative="1" as="geometry" />
        </mxCell>
        <mxCell id="pgYXsg9tAZO5rDnp-1l6-276" value="No" style="text;html=1;align=center;verticalAlign=middle;resizable=0;points=[];autosize=1;strokeColor=none;fillColor=none;" vertex="1" parent="pgYXsg9tAZO5rDnp-1l6-266">
          <mxGeometry x="30" y="193" width="40" height="30" as="geometry" />
        </mxCell>
        <mxCell id="pgYXsg9tAZO5rDnp-1l6-275" value="Si" style="text;html=1;align=center;verticalAlign=middle;resizable=0;points=[];autosize=1;strokeColor=none;fillColor=none;" vertex="1" parent="pgYXsg9tAZO5rDnp-1l6-266">
          <mxGeometry x="110" y="260" width="30" height="30" as="geometry" />
        </mxCell>
        <mxCell id="pgYXsg9tAZO5rDnp-1l6-298" style="edgeStyle=orthogonalEdgeStyle;rounded=0;orthogonalLoop=1;jettySize=auto;html=1;entryX=0.5;entryY=0;entryDx=0;entryDy=0;" edge="1" parent="pgYXsg9tAZO5rDnp-1l6-266" source="pgYXsg9tAZO5rDnp-1l6-278" target="pgYXsg9tAZO5rDnp-1l6-282">
          <mxGeometry relative="1" as="geometry" />
        </mxCell>
        <mxCell id="pgYXsg9tAZO5rDnp-1l6-278" value="Guardar datos en la Base de Datos" style="whiteSpace=wrap;html=1;rounded=1;" vertex="1" parent="pgYXsg9tAZO5rDnp-1l6-266">
          <mxGeometry x="50" y="310" width="120" height="60" as="geometry" />
        </mxCell>
        <mxCell id="pgYXsg9tAZO5rDnp-1l6-282" value="Envia notificaciÃ³n al ciudadano" style="whiteSpace=wrap;html=1;rounded=1;" vertex="1" parent="pgYXsg9tAZO5rDnp-1l6-266">
          <mxGeometry x="50" y="390" width="120" height="60" as="geometry" />
        </mxCell>
        <mxCell id="pgYXsg9tAZO5rDnp-1l6-281" value="Datos Correctos" style="strokeWidth=1;html=1;shape=mxgraph.flowchart.decision;whiteSpace=wrap;" vertex="1" parent="pgYXsg9tAZO5rDnp-1l6-266">
          <mxGeometry x="60" y="550" width="100" height="100" as="geometry" />
        </mxCell>
        <mxCell id="pgYXsg9tAZO5rDnp-1l6-280" value="Valida los datos ingresados" style="rounded=1;whiteSpace=wrap;html=1;" vertex="1" parent="pgYXsg9tAZO5rDnp-1l6-266">
          <mxGeometry x="50" y="470" width="120" height="60" as="geometry" />
        </mxCell>
        <mxCell id="pgYXsg9tAZO5rDnp-1l6-279" style="edgeStyle=orthogonalEdgeStyle;rounded=0;orthogonalLoop=1;jettySize=auto;html=1;exitX=0.5;exitY=1;exitDx=0;exitDy=0;entryX=0.5;entryY=0;entryDx=0;entryDy=0;entryPerimeter=0;" edge="1" parent="pgYXsg9tAZO5rDnp-1l6-266" source="pgYXsg9tAZO5rDnp-1l6-280" target="pgYXsg9tAZO5rDnp-1l6-281">
          <mxGeometry relative="1" as="geometry" />
        </mxCell>
        <mxCell id="pgYXsg9tAZO5rDnp-1l6-284" value="No" style="text;html=1;align=center;verticalAlign=middle;resizable=0;points=[];autosize=1;strokeColor=none;fillColor=none;" vertex="1" parent="pgYXsg9tAZO5rDnp-1l6-266">
          <mxGeometry x="150" y="574" width="40" height="30" as="geometry" />
        </mxCell>
        <mxCell id="pgYXsg9tAZO5rDnp-1l6-283" value="Si" style="text;html=1;align=center;verticalAlign=middle;resizable=0;points=[];autosize=1;strokeColor=none;fillColor=none;" vertex="1" parent="pgYXsg9tAZO5rDnp-1l6-266">
          <mxGeometry x="35" y="578" width="30" height="30" as="geometry" />
        </mxCell>
        <mxCell id="pgYXsg9tAZO5rDnp-1l6-271" value="Ciudadano" style="swimlane;whiteSpace=wrap;html=1;" vertex="1" parent="pgYXsg9tAZO5rDnp-1l6-260">
          <mxGeometry x="400" y="30" width="200" height="710" as="geometry" />
        </mxCell>
        <mxCell id="pgYXsg9tAZO5rDnp-1l6-300" value="Ingresa credenciales de acceso" style="whiteSpace=wrap;html=1;rounded=1;" vertex="1" parent="pgYXsg9tAZO5rDnp-1l6-271">
          <mxGeometry x="40" y="390" width="120" height="60" as="geometry" />
        </mxCell>
        <mxCell id="pgYXsg9tAZO5rDnp-1l6-285" style="edgeStyle=orthogonalEdgeStyle;rounded=0;orthogonalLoop=1;jettySize=auto;html=1;entryX=0;entryY=0.5;entryDx=0;entryDy=0;" edge="1" parent="pgYXsg9tAZO5rDnp-1l6-260" source="pgYXsg9tAZO5rDnp-1l6-269" target="pgYXsg9tAZO5rDnp-1l6-272">
          <mxGeometry relative="1" as="geometry" />
        </mxCell>
        <mxCell id="pgYXsg9tAZO5rDnp-1l6-286" style="edgeStyle=orthogonalEdgeStyle;rounded=0;orthogonalLoop=1;jettySize=auto;html=1;exitX=0;exitY=0.5;exitDx=0;exitDy=0;exitPerimeter=0;entryX=0.5;entryY=1;entryDx=0;entryDy=0;" edge="1" parent="pgYXsg9tAZO5rDnp-1l6-260" source="pgYXsg9tAZO5rDnp-1l6-273" target="pgYXsg9tAZO5rDnp-1l6-269">
          <mxGeometry relative="1" as="geometry" />
        </mxCell>
        <mxCell id="pgYXsg9tAZO5rDnp-1l6-295" style="edgeStyle=orthogonalEdgeStyle;rounded=0;orthogonalLoop=1;jettySize=auto;html=1;entryX=0.5;entryY=0;entryDx=0;entryDy=0;" edge="1" parent="pgYXsg9tAZO5rDnp-1l6-260" source="pgYXsg9tAZO5rDnp-1l6-273" target="pgYXsg9tAZO5rDnp-1l6-270">
          <mxGeometry relative="1" as="geometry">
            <Array as="points">
              <mxPoint x="310" y="320" />
              <mxPoint x="100" y="320" />
            </Array>
          </mxGeometry>
        </mxCell>
        <mxCell id="pgYXsg9tAZO5rDnp-1l6-296" style="edgeStyle=orthogonalEdgeStyle;rounded=0;orthogonalLoop=1;jettySize=auto;html=1;entryX=0;entryY=0.5;entryDx=0;entryDy=0;" edge="1" parent="pgYXsg9tAZO5rDnp-1l6-260" source="pgYXsg9tAZO5rDnp-1l6-270" target="pgYXsg9tAZO5rDnp-1l6-278">
          <mxGeometry relative="1" as="geometry" />
        </mxCell>
        <mxCell id="pgYXsg9tAZO5rDnp-1l6-302" style="edgeStyle=orthogonalEdgeStyle;rounded=0;orthogonalLoop=1;jettySize=auto;html=1;entryX=0;entryY=0.5;entryDx=0;entryDy=0;" edge="1" parent="pgYXsg9tAZO5rDnp-1l6-260" source="pgYXsg9tAZO5rDnp-1l6-282" target="pgYXsg9tAZO5rDnp-1l6-300">
          <mxGeometry relative="1" as="geometry" />
        </mxCell>
        <mxCell id="pgYXsg9tAZO5rDnp-1l6-303" style="edgeStyle=orthogonalEdgeStyle;rounded=0;orthogonalLoop=1;jettySize=auto;html=1;entryX=1;entryY=0.5;entryDx=0;entryDy=0;" edge="1" parent="pgYXsg9tAZO5rDnp-1l6-260" source="pgYXsg9tAZO5rDnp-1l6-300" target="pgYXsg9tAZO5rDnp-1l6-280">
          <mxGeometry relative="1" as="geometry">
            <Array as="points">
              <mxPoint x="500" y="530" />
            </Array>
          </mxGeometry>
        </mxCell>
        <mxCell id="pgYXsg9tAZO5rDnp-1l6-304" style="edgeStyle=orthogonalEdgeStyle;rounded=0;orthogonalLoop=1;jettySize=auto;html=1;entryX=1;entryY=0.5;entryDx=0;entryDy=0;" edge="1" parent="pgYXsg9tAZO5rDnp-1l6-260" source="pgYXsg9tAZO5rDnp-1l6-281" target="pgYXsg9tAZO5rDnp-1l6-264">
          <mxGeometry relative="1" as="geometry" />
        </mxCell>
        <mxCell id="pgYXsg9tAZO5rDnp-1l6-305" style="edgeStyle=orthogonalEdgeStyle;rounded=0;orthogonalLoop=1;jettySize=auto;html=1;entryX=1;entryY=0.5;entryDx=0;entryDy=0;" edge="1" parent="pgYXsg9tAZO5rDnp-1l6-260" source="pgYXsg9tAZO5rDnp-1l6-281" target="pgYXsg9tAZO5rDnp-1l6-300">
          <mxGeometry relative="1" as="geometry" />
        </mxCell>
      </root>
    </mxGraphModel>
  </diagram>
</mxfile>
